<svg width="18" height="18" viewBox="0 0 18 18" fill="none" xmlns="http://www.w3.org/2000/svg">
<path d="M16.2653 9.28704C16.2653 8.66074 16.2148 8.2037 16.1054 7.72974H8.99512V10.5566H13.1687C13.0846 11.2591 12.6302 12.317 11.6204 13.028L11.6063 13.1226L13.8544 14.8744L14.0102 14.89C15.4406 13.5612 16.2653 11.6061 16.2653 9.28704Z" fill="#554AF0"/>
<path d="M8.99482 16.7338C11.0395 16.7338 12.7561 16.0567 14.0099 14.8887L11.6201 13.0267C10.9807 13.4753 10.1223 13.7884 8.99482 13.7884C6.99217 13.7884 5.29244 12.4597 4.68653 10.623L4.59772 10.6306L2.26006 12.4503L2.22949 12.5358C3.47484 15.0241 6.03287 16.7338 8.99482 16.7338Z" fill="#34A853"/>
<path d="M4.68669 10.6236C4.52682 10.1496 4.4343 9.64178 4.4343 9.11706C4.4343 8.59228 4.52682 8.08448 4.67828 7.61051L4.67405 7.50957L2.3071 5.66064L2.22965 5.6977C1.71639 6.73028 1.42188 7.88983 1.42188 9.11706C1.42188 10.3443 1.71639 11.5038 2.22965 12.5364L4.68669 10.6236Z" fill="#FBBC05"/>
<path d="M8.99482 4.44534C10.4169 4.44534 11.3761 5.06319 11.9231 5.57951L14.0604 3.4805C12.7477 2.25327 11.0395 1.5 8.99482 1.5C6.03287 1.5 3.47484 3.20965 2.22949 5.69796L4.67812 7.61077C5.29244 5.77416 6.99217 4.44534 8.99482 4.44534Z" fill="#EB4335"/>
</svg>
