<svg width="10" height="10" viewBox="0 0 10 10" fill="none" xmlns="http://www.w3.org/2000/svg">
<path d="M8.35331 4.90039L3.97831 9.58789C3.93195 9.63737 3.87075 9.67042 3.80395 9.68207C3.73715 9.69372 3.66838 9.68332 3.60801 9.65245C3.54764 9.62158 3.49894 9.57191 3.46927 9.51094C3.43961 9.44997 3.43058 9.38101 3.44354 9.31445L4.0162 6.45L1.76503 5.60468C1.71668 5.5866 1.67357 5.55682 1.63954 5.51801C1.60551 5.4792 1.58162 5.43256 1.57001 5.38226C1.55841 5.33196 1.55944 5.27957 1.57302 5.22977C1.5866 5.17997 1.61231 5.13431 1.64784 5.09687L6.02284 0.409372C6.0692 0.359894 6.1304 0.326837 6.1972 0.315191C6.264 0.303545 6.33277 0.313941 6.39314 0.34481C6.45351 0.375679 6.50221 0.425347 6.53187 0.486318C6.56154 0.547289 6.57057 0.616255 6.55761 0.68281L5.98339 3.55039L8.23456 4.39453C8.28255 4.41273 8.32532 4.44248 8.35908 4.48114C8.39285 4.5198 8.41657 4.56618 8.42815 4.61618C8.43974 4.66619 8.43883 4.71828 8.4255 4.76784C8.41217 4.81741 8.38684 4.86293 8.35175 4.90039H8.35331Z" fill="white"/>
</svg>
